:SAMPLES-PER-SECOND 30
:FRAME-RANGE 1-564
:FULLY-SPECIFIED
:DEGREES
53
root  70.5086 38.2741 143.203 -11.5289 -71.81 14.3958
RightUpLeg  -19.8141 -2.897 -7.60306
RightLeg  69.0323 -0.821851 -3.13538
RightFoot  -0.337593 -0.59803 6.17803
RightToes  1.21801e-010 1.2921e-014 -6.02303e-014
Spine  -5.9145 -1.77707 -6.28203
Spine1  10.4457 -1.05288 -4.91245
HEad  30.5428 -1.32209 1.43715
LeftShoulder1  1.35719 -1.31649 -23.3528
LeftArm  -4.1725 5.07421 -47.1107
LeftForeArm  34.2558 4.17154 -12.111
LeftHand  -0.0361242 4.97213 3.48814
RightShoulder  1.76496 1.77939 28.771
RightArm  -21.2063 1.53819 51.7054
RightForeArm  67.7002 -5.80912 6.03667
RightHand  0.0833671 -6.05123 -17.1361
LeftUpLeg  -15.8027 -2.49232 -7.19376
LeftLeg  19.829 1.6294 1.74763
LeftFoot  -6.4553 -0.0118666 1.18901
LeftToes  1.70735e-010 3.74918e-011 3.68705e-011
54
root  69.5775 38.2952 143.598 -7.98204 -70.1622 10.643
RightUpLeg  -22.7892 -5.29583 -6.23431
RightLeg  65.8001 -1.33842 -3.89711
RightFoot  -3.81445 -0.362599 5.11288
RightToes  1.21801e-010 1.2921e-014 -6.02303e-014
Spine  -5.10396 -2.86157 -6.46474
Spine1  9.5815 -2.35271 -4.13194
HEad  30.6395 -1.17821 1.47922
LeftShoulder1  1.43807 -1.70069 -22.6807
LeftArm  -4.17774 1.83794 -48.0697
LeftForeArm  32.7413 2.16865 -11.9955
LeftHand  -0.0469839 4.60629 3.77829
RightShoulder  1.70342 1.58945 28.8561
RightArm  -22.7874 0.720586 51.6294
RightForeArm  69.1481 -5.62066 5.22337
RightHand  0.146044 -6.45226 -17.5315
LeftUpLeg  -14.8162 -2.49538 -6.59453
LeftLeg  21.2945 0.0938295 1.1448
LeftFoot  -8.16064 -0.00410279 1.91611
LeftToes  1.70735e-010 3.74918e-011 3.68705e-011
55
root  68.636 38.3935 143.982 -5.12173 -69.4483 7.63462
RightUpLeg  -25.2658 -5.42357 -4.22279
RightLeg  59.7378 -3.27614 -6.53292
RightFoot  -5.79927 -0.26848 4.72795
RightToes  1.21801e-010 1.2921e-014 -6.02303e-014
Spine  -4.21821 -3.33292 -6.71411
Spine1  8.3686 -3.1166 -2.41758
HEad  30.5451 -1.19395 1.19182
LeftShoulder1  1.60356 -2.29533 -22.5832
LeftArm  -3.96393 -1.43372 -48.6042
LeftForeArm  31.2871 0.448205 -11.96
LeftHand  -0.0604476 4.15321 3.87594
RightShoulder  1.65479 1.41585 29.1066
RightArm  -23.7158 0.127341 50.7024
RightForeArm  70.2838 -5.48922 4.6927
RightHand  0.135959 -6.41444 -17.0952
LeftUpLeg  -13.3013 -2.62705 -5.79517
LeftLeg  21.6144 -0.377869 0.951121
LeftFoot  -9.43782 0.0213955 2.12826
LeftToes  1.70735e-010 3.74918e-011 3.68705e-011
56
root  67.6911 38.5587 144.353 -2.30261 -69.0079 4.70153
RightUpLeg  -26.3415 -5.08906 -2.17719
RightLeg  50.0921 -5.77787 -7.69626
RightFoot  -6.48104 -0.215126 4.02794
RightToes  1.21801e-010 1.2921e-014 -6.02303e-014
Spine  -4.17027 -3.56462 -6.55211
Spine1  8.26673 -3.5309 -0.858297
HEad  30.2 -1.61817 0.880057
LeftShoulder1  1.76492 -2.92718 -22.254
LeftArm  -3.49729 -4.81273 -49.3682
LeftForeArm  29.9777 -0.921928 -12.0256
LeftHand  -0.07212 4.05177 4.70037
RightShoulder  1.57375 1.21538 28.8524
RightArm  -25.4536 -0.631636 50.6423
RightForeArm  71.4951 -5.27392 3.68068
RightHand  0.167019 -6.63199 -17.0435
LeftUpLeg  -11.3636 -3.11491 -4.95384
LeftLeg  20.9592 -0.0957303 1.2209
LeftFoot  -10.0211 0.0271054 2.87761
LeftToes  1.70735e-010 3.74918e-011 3.68705e-011
57
root  66.7443 38.8138 144.699 -0.348228 -68.541 2.74356
RightUpLeg  -25.5857 -4.90578 -1.32962
RightLeg  37.3776 -5.5471 -4.78594
RightFoot  -5.91805 -0.208124 3.5425
RightToes  1.21801e-010 1.2921e-014 -6.02303e-014
Spine  -4.37319 -3.88145 -6.25487
Spine1  8.20461 -3.87429 -0.115476
HEad  30.4894 -1.91605 1.05854
LeftShoulder1  1.85735 -3.37435 -21.7118
LeftArm  -3.03867 -7.46278 -50.1246
LeftForeArm  29.7997 -1.94365 -12.0517
LeftHand  -0.0678415 4.43147 5.96405
RightShoulder  1.51549 1.07716 28.6072
RightArm  -26.9951 -1.52664 50.9207
RightForeArm  72.1435 -5.10971 2.85097
RightHand  0.190684 -6.80313 -16.9563
LeftUpLeg  -8.97081 -1.96455 -4.2305
LeftLeg  19.1425 -1.5724 0.815059
LeftFoot  -9.91421 0.0269864 2.61986
LeftToes  1.70735e-010 3.74918e-011 3.68705e-011
58
root  65.7126 38.9747 145.046 0.989523 -67.8311 1.52464
RightUpLeg  -23.4794 -4.24255 -0.149599
RightLeg  23.2946 -6.24647 -3.1501
RightFoot  -3.83881 -0.290773 4.03343
RightToes  1.21801e-010 1.2921e-014 -6.02303e-014
Spine  -5.53186 -4.27545 -6.06593
Spine1  8.96691 -4.26016 0.361582
HEad  31.1492 -2.29688 1.0743
LeftShoulder1  1.94959 -3.8327 -21.1879
LeftArm  -2.7428 -9.76232 -50.6457
LeftForeArm  30.5982 -2.33823 -12.0377
LeftHand  -0.089773 3.89926 5.71824
RightShoulder  1.47085 0.909494 28.9259
RightArm  -27.6676 -2.21941 50.4026
RightForeArm  72.4964 -5.02982 2.45852
RightHand  0.187375 -6.80754 -16.6673
LeftUpLeg  -6.74809 -1.30889 -3.67723
LeftLeg  17.8293 -2.99848 0.585334
LeftFoot  -10.4572 0.0515495 1.46342
LeftToes  1.70735e-010 3.74918e-011 3.68705e-011
59
root  64.6917 39.0765 145.384 1.87982 -67.2578 0.961881
RightUpLeg  -21.3283 -3.69718 0.152265
RightLeg  10.8139 -7.13338 -1.18756
RightFoot  -1.64015 -0.425357 4.87658
RightToes  1.21801e-010 1.2921e-014 -6.02303e-014
Spine  -6.41409 -4.61666 -5.77797
Spine1  9.00367 -4.60031 0.696552
HEad  32.3259 -2.55788 1.04554
LeftShoulder1  1.94757 -4.01616 -20.4272
LeftArm  -2.16051 -11.1006 -51.4167
LeftForeArm  29.0865 -2.73 -12.1076
LeftHand  -0.0931603 3.43749 4.64651
RightShoulder  1.38677 0.657436 29.0139
RightArm  -28.0253 -3.16808 50.1575
RightForeArm  72.9186 -4.98623 2.29993
RightHand  0.194714 -6.86564 -16.6035
LeftUpLeg  -4.67035 -0.610858 -3.2461
LeftLeg  16.3507 -4.19524 0.341966
LeftFoot  -10.7623 0.0571376 1.49015
LeftToes  1.70735e-010 3.74918e-011 3.68705e-011
60
root  63.6981 39.0959 145.711 1.6335 -66.7974 1.68379
RightUpLeg  -20.0601 -1.04699 -1.2863
RightLeg  1.86587 -11.6536 1.38211
RightFoot  -0.647679 -0.31656 3.33324
RightToes  1.21801e-010 1.2921e-014 -6.02303e-014
Spine  -6.93439 -4.82471 -5.67544
Spine1  8.65315 -4.81758 0.961226
HEad  32.7771 -2.99867 0.893157
LeftShoulder1  1.89495 -3.92306 -20.0137
LeftArm  -1.83742 -12.0041 -51.8981
LeftForeArm  30.3623 -2.80553 -12.126
LeftHand  -0.0895587 3.61754 4.83543
RightShoulder  1.30586 0.488142 28.414
RightArm  -28.5902 -5.07444 50.6349
RightForeArm  72.9842 -4.95974 2.15808
RightHand  0.22434 -7.12908 -16.1428
LeftUpLeg  -2.82135 0.0184575 -3.18152
LeftLeg  15.1763 -5.27141 -0.0964495
LeftFoot  -11.375 0.0686708 1.17246
LeftToes  1.70735e-010 3.74918e-011 3.68705e-011
61
root  62.6679 38.9448 146.068 0.75334 -66.9101 2.95484
RightUpLeg  -19.8572 0.274715 -1.28658
RightLeg  -2.06818 -14.9621 1.28262
RightFoot  -2.65658 -0.241902 2.9458
RightToes  1.21801e-010 1.2921e-014 -6.02303e-014
Spine  -7.55039 -4.79391 -5.13504
Spine1  8.54771 -4.64557 0.433559
HEad  32.0575 -3.09561 0.386899
LeftShoulder1  1.87389 -3.75693 -20.3546
LeftArm  -0.97685 -12.581 -51.742
LeftForeArm  30.7229 -3.06474 -12.2718
LeftHand  -0.0950008 3.40082 4.6802
RightShoulder  1.28018 0.424516 28.305
RightArm  -27.8609 -6.18465 50.16
RightForeArm  71.6034 -5.10345 2.68536
RightHand  0.17877 -6.80965 -16.0158
LeftUpLeg  -1.56632 0.249826 -3.51614
LeftLeg  15.7683 -5.23001 -0.309089
LeftFoot  -12.734 0.0931184 1.37
LeftToes  1.70735e-010 3.74918e-011 3.68705e-011
62
root  61.6506 38.73 146.464 -0.864933 -67.7106 4.49819
RightUpLeg  -20.63 -1.31428 -1.66724
RightLeg  0.199286 -15.148 2.59172
RightFoot  -3.70156 -0.105198 1.19802
RightToes  1.21801e-010 1.2921e-014 -6.02303e-014
Spine  -7.73183 -4.498 -4.24535
Spine1  8.61995 -4.26027 -0.223158
HEad  31.0414 -2.77971 -0.735333
LeftShoulder1  1.87905 -3.56204 -21.2393
LeftArm  -0.183116 -12.5675 -51.1806
LeftForeArm  30.4169 -3.16219 -12.4627
LeftHand  -0.114041 3.16229 5.25376
RightShoulder  1.2873 0.528538 27.5372
RightArm  -28.1617 -6.79021 50.4632
RightForeArm  71.2615 -5.09993 2.58363
RightHand  0.167956 -6.72186 -16.1035
LeftUpLeg  -0.0782768 -0.226705 -4.25662
LeftLeg  17.0728 -4.06578 -0.131664
LeftFoot  -14.4512 0.101624 0.548994
LeftToes  1.70735e-010 3.74918e-011 3.68705e-011
63
root  60.6328 38.6815 146.888 -1.27157 -68.1205 4.28094
RightUpLeg  -20.5596 -2.08364 -0.937022
RightLeg  3.61927 -15.8605 1.7598
RightFoot  -1.13352 0.21411 -2.48155
RightToes  1.21801e-010 1.2921e-014 -6.02303e-014
Spine  -8.01544 -4.29587 -2.52123
Spine1  9.50185 -4.29668 -0.183196
HEad  30.6533 -2.18169 -2.16802
LeftShoulder1  1.93945 -3.55246 -22.2176
LeftArm  0.162666 -11.537 -50.7845
LeftForeArm  31.0363 -2.95245 -12.6107
LeftHand  -0.0791119 4.19728 5.99805
RightShoulder  1.3914 0.964873 26.5257
RightArm  -28.0042 -7.15573 50.4591
RightForeArm  71.0311 -5.13138 2.71701
RightHand  0.126694 -6.43678 -15.8836
LeftUpLeg  2.16796 -1.77446 -4.55565
LeftLeg  17.589 -2.20335 0.312366
LeftFoot  -14.9228 0.0662288 -0.744513
LeftToes  1.70735e-010 3.74918e-011 3.68705e-011
64
root  59.5941 38.7018 147.232 -0.18198 -68.7116 2.61838
RightUpLeg  -20.4873 -1.13023 0.260946
RightLeg  6.73368 -16.689 -0.195654
RightFoot  3.06042 0.350267 -2.60487
RightToes  1.21801e-010 1.2921e-014 -6.02303e-014
Spine  -8.15291 -4.02107 -0.772743
Spine1  9.91756 -4.50109 0.797903
HEad  31.6243 -0.901209 -3.65737
LeftShoulder1  1.9275 -3.37574 -22.8204
LeftArm  -0.399925 -9.5701 -50.623
LeftForeArm  32.1095 -1.98457 -12.6808
LeftHand  -0.0586937 4.60854 5.81457
RightShoulder  1.33542 0.774335 26.6718
RightArm  -27.0693 -6.81553 49.4069
RightForeArm  70.3199 -5.23733 3.18357
RightHand  0.199743 -6.95222 -16.1212
LeftUpLeg  3.54792 -4.43412 -4.30945
LeftLeg  19.3889 0.482491 0.593204
LeftFoot  -14.7368 -0.00706395 -3.21763
LeftToes  1.70735e-010 3.74918e-011 3.68705e-011
65
root  58.5494 38.6773 147.677 1.23776 -69.8361 1.04284
RightUpLeg  -20.903 -3.12801 1.51511
RightLeg  10.721 -13.7394 -0.922882
RightFoot  3.2293 0.21938 -1.5425
RightToes  1.21801e-010 1.2921e-014 -6.02303e-014
Spine  -8.33191 -3.82097 1.55234
Spine1  9.48604 -4.44508 0.846533
HEad  33.0194 0.700794 -4.78973
LeftShoulder1  1.63751 -2.16557 -23.9552
LeftArm  -2.66444 -7.01999 -51.217
LeftForeArm  34.4041 0.0832308 -12.2602
LeftHand  -0.0715362 4.16661 5.06422
RightShoulder  1.28781 0.584079 27.0546
RightArm  -25.7954 -5.90694 47.6262
RightForeArm  69.4383 -5.37243 3.78876
RightHand  0.185146 -6.8049 -16.5313
LeftUpLeg  2.94267 -3.39466 -3.6185
LeftLeg  24.0852 -0.242902 0.220579
LeftFoot  -13.5459 -0.0311176 -5.8292
LeftToes  1.70735e-010 3.74918e-011 3.68705e-011
66
root  57.5265 38.6511 148.001 3.60974 -70.9511 -1.64678
RightUpLeg  -20.6134 -6.76369 3.42384
RightLeg  13.4148 -9.18516 -0.367052
RightFoot  2.21111 0.333261 -2.67561
RightToes  1.21801e-010 1.2921e-014 -6.02303e-014
Spine  -8.56951 -3.82408 3.06762
Spine1  9.97303 -4.70077 1.65424
HEad  33.5335 -0.105605 -4.51379
LeftShoulder1  1.78817 -2.71766 -23.7033
LeftArm  -3.18814 -3.10297 -51.2687
LeftForeArm  34.6674 1.07402 -12.1864
LeftHand  -0.0472343 4.78822 5.03313
RightShoulder  1.3772 0.887607 26.7952
RightArm  -25.4408 -4.77493 47.0398
RightForeArm  68.6347 -5.42014 3.88974
RightHand  0.195408 -6.85796 -16.7297
LeftUpLeg  0.451768 -0.64582 -1.61609
LeftLeg  31.8585 -2.84893 -1.55471
LeftFoot  -10.085 0.164227 -9.46276
LeftToes  1.70735e-010 3.74918e-011 3.68705e-011
